<svg xmlns="http://www.w3.org/2000/svg" xmlns:xlink="http://www.w3.org/1999/xlink" version="1.0" x="0" y="0" width="2400" height="1705.9748814764405" viewBox="81.74960342407226 62.26960006713867 176.50079315185548 125.46079986572266" preserveAspectRatio="xMidYMid meet" color-interpolation-filters="sRGB"><g><defs><linearGradient id="92" x1="0%" y1="0%" x2="100%" y2="0%"><stop offset="0%" stop-color="#fa71cd"></stop> <stop offset="100%" stop-color="#9b59b6"></stop></linearGradient><linearGradient id="93" x1="0%" y1="0%" x2="100%" y2="0%"><stop offset="0%" stop-color="#f9d423"></stop> <stop offset="100%" stop-color="#f83600"></stop></linearGradient><linearGradient id="94" x1="0%" y1="0%" x2="100%" y2="0%"><stop offset="0%" stop-color="#0064d2"></stop> <stop offset="100%" stop-color="#1cb0f6"></stop></linearGradient><linearGradient id="95" x1="0%" y1="0%" x2="100%" y2="0%"><stop offset="0%" stop-color="#f00978"></stop> <stop offset="100%" stop-color="#3f51b1"></stop></linearGradient><linearGradient id="96" x1="0%" y1="0%" x2="100%" y2="0%"><stop offset="0%" stop-color="#7873f5"></stop> <stop offset="100%" stop-color="#ec77ab"></stop></linearGradient><linearGradient id="97" x1="0%" y1="0%" x2="100%" y2="0%"><stop offset="0%" stop-color="#f9d423"></stop> <stop offset="100%" stop-color="#e14fad"></stop></linearGradient><linearGradient id="98" x1="0%" y1="0%" x2="100%" y2="0%"><stop offset="0%" stop-color="#009efd"></stop> <stop offset="100%" stop-color="#2af598"></stop></linearGradient><linearGradient id="99" x1="0%" y1="0%" x2="100%" y2="0%"><stop offset="0%" stop-color="#ffcc00"></stop> <stop offset="100%" stop-color="#00b140"></stop></linearGradient><linearGradient id="100" x1="0%" y1="0%" x2="100%" y2="0%"><stop offset="0%" stop-color="#d51007"></stop> <stop offset="100%" stop-color="#ff8177"></stop></linearGradient><linearGradient id="102" x1="0%" y1="0%" x2="100%" y2="0%"><stop offset="0%" stop-color="#a2b6df"></stop> <stop offset="100%" stop-color="#0c3483"></stop></linearGradient><linearGradient id="103" x1="0%" y1="0%" x2="100%" y2="0%"><stop offset="0%" stop-color="#7ac5d8"></stop> <stop offset="100%" stop-color="#eea2a2"></stop></linearGradient><linearGradient id="104" x1="0%" y1="0%" x2="100%" y2="0%"><stop offset="0%" stop-color="#00ecbc"></stop> <stop offset="100%" stop-color="#007adf"></stop></linearGradient><linearGradient id="105" x1="0%" y1="0%" x2="100%" y2="0%"><stop offset="0%" stop-color="#b88746"></stop> <stop offset="100%" stop-color="#fdf5a6"></stop></linearGradient></defs><g class="iconmbgsvg" transform="translate(83.4800033569336,70)"><g fill="#ffffff" hollow-target="textRect"><g transform="translate(31.519996643066406,0)" mask="url(#5173b9eb-000c-482e-bccd-e403c444eb3e)"><g><rect fill="#ffffff" fill-opacity="0" stroke-width="2" x="0" y="0" width="110" height="110" class="image-rect"></rect> <svg x="0" y="0" width="110" height="110" filtersec="colorsb9833698616" class="image-svg-svg primary" style="overflow: visible;"><svg xmlns="http://www.w3.org/2000/svg" xmlns:xlink="http://www.w3.org/1999/xlink" fill="#000000" version="1.1" x="0px" y="0px" viewBox="10.399999618530273 10.399999618530273 75.19999694824219 75.19999694824219" enable-background="new 0 0 96 96" xml:space="preserve"><path d="M48,85.6c20.7,0,37.6-16.9,37.6-37.6S68.7,10.4,48,10.4S10.4,27.3,10.4,48S27.3,85.6,48,85.6z M48,12.4  c19.6,0,35.6,16,35.6,35.6S67.6,83.6,48,83.6S12.4,67.6,12.4,48S28.4,12.4,48,12.4z"></path><path d="M48,75.4c15.1,0,27.4-12.3,27.4-27.4S63.1,20.6,48,20.6S20.6,32.9,20.6,48S32.9,75.4,48,75.4z M48,22.6  C62,22.6,73.4,34,73.4,48S62,73.4,48,73.4S22.6,62,22.6,48S34,22.6,48,22.6z"></path></svg></svg> </g><rect v-gra="id" width="122" height="122" transform="translate(-6, -6)" style="pointer-events:none;" fill="url(#0SHwvTyNgpwdAdphhEEMy)"></rect></g> <g transform="translate(0,42.75)"><g fill-rule="" class="tp-name"><g transform="scale(1)"><g><path d="M2.38 0L7.11 0 7.11-24.5 2.38-24.5ZM11.9 0L16.49 0 16.49-16.66 16.66-16.66 28.46 0 33.08 0 33.08-24.5 28.56-24.5 28.56-7.63 28.39-7.63 16.56-24.5 11.9-24.5ZM35.66-24.5L35.66-20.48 43.05-20.48 43.05 0 47.78 0 47.78-20.48 55.13-20.48 55.13-24.5ZM57.75 0L62.48 0 62.48-8.65 67.97-8.65 72.56 0 77.88 0 72.17-9.45C75.15-10.92 76.48-14.14 76.48-16.77 76.48-21.7 73.4-24.5 67.87-24.5L57.75-24.5ZM62.48-12.57L62.48-20.37 67.34-20.37C70.49-20.37 72.03-19.08 72.03-16.66 72.03-14.07 70.21-12.57 67.38-12.57ZM86.38 0L91.42 0 101.01-24.5 95.62-24.5 89.18-5.74 88.87-5.74 82.39-24.5 77.42-24.5ZM110.01 0L114.98 0 120.44-16.77 120.68-16.77 125.69 0 130.62 0 139.58-24.5 134.23-24.5 128.59-6.37 128.35-6.37 122.64-24.5 118.83-24.5 112.98-6.37 112.74-6.37 106.65-24.5 101.29-24.5ZM142.13 0L142.13-4.06 137.06-4.06 137.06 0ZM158.51-24.5L152.53-24.5 143.75 0 148.85 0 150.4-4.55 161.03-4.55 162.68 0 168.14 0ZM151.62-8.23L155.37-19.43 155.72-19.43 159.74-8.23ZM170.69 0L175.42 0 175.42-24.5 170.69-24.5Z" transform="translate(-2.380000114440918, 24.5)"></path></g> </g></g> </g></g></g><mask id="eb33bc26-b807-42f5-aa99-6b79c9a7d7d0"><g fill="white"><g><rect fill-opacity="1" stroke-width="2" x="0" y="0" width="110" height="110" class="image-rect"></rect> <svg x="0" y="0" width="110" height="110" filtersec="colorsb9833698616" class="image-svg-svg primary" style="overflow: visible;"><svg xmlns="http://www.w3.org/2000/svg" xmlns:xlink="http://www.w3.org/1999/xlink" version="1.1" x="0px" y="0px" viewBox="10.399999618530273 10.399999618530273 75.19999694824219 75.19999694824219" enable-background="new 0 0 96 96" xml:space="preserve"><path d="M48,85.6c20.7,0,37.6-16.9,37.6-37.6S68.7,10.4,48,10.4S10.4,27.3,10.4,48S27.3,85.6,48,85.6z M48,12.4  c19.6,0,35.6,16,35.6,35.6S67.6,83.6,48,83.6S12.4,67.6,12.4,48S28.4,12.4,48,12.4z"></path><path d="M48,75.4c15.1,0,27.4-12.3,27.4-27.4S63.1,20.6,48,20.6S20.6,32.9,20.6,48S32.9,75.4,48,75.4z M48,22.6  C62,22.6,73.4,34,73.4,48S62,73.4,48,73.4S22.6,62,22.6,48S34,22.6,48,22.6z"></path></svg></svg> </g></g> <g transform="translate(-31.519996643066406,42.75)"><rect fill="black" fill-opacity="1" x="-3.5" y="-3.5" width="180.0399932861328" height="31.5"></rect><rect fill="black" fill-opacity="1" x="-3.5" y="-3.5"></rect></g><g transform="translate(-31.519996643066406,42.75)" fill="black"><g fill-rule="" class="tp-name"><g transform="scale(1)"><g><path d="M2.38 0L7.11 0 7.11-24.5 2.38-24.5ZM11.9 0L16.49 0 16.49-16.66 16.66-16.66 28.46 0 33.08 0 33.08-24.5 28.56-24.5 28.56-7.63 28.39-7.63 16.56-24.5 11.9-24.5ZM35.66-24.5L35.66-20.48 43.05-20.48 43.05 0 47.78 0 47.78-20.48 55.13-20.48 55.13-24.5ZM57.75 0L62.48 0 62.48-8.65 67.97-8.65 72.56 0 77.88 0 72.17-9.45C75.15-10.92 76.48-14.14 76.48-16.77 76.48-21.7 73.4-24.5 67.87-24.5L57.75-24.5ZM62.48-12.57L62.48-20.37 67.34-20.37C70.49-20.37 72.03-19.08 72.03-16.66 72.03-14.07 70.21-12.57 67.38-12.57ZM86.38 0L91.42 0 101.01-24.5 95.62-24.5 89.18-5.74 88.87-5.74 82.39-24.5 77.42-24.5ZM110.01 0L114.98 0 120.44-16.77 120.68-16.77 125.69 0 130.62 0 139.58-24.5 134.23-24.5 128.59-6.37 128.35-6.37 122.64-24.5 118.83-24.5 112.98-6.37 112.74-6.37 106.65-24.5 101.29-24.5ZM142.13 0L142.13-4.06 137.06-4.06 137.06 0ZM158.51-24.5L152.53-24.5 143.75 0 148.85 0 150.4-4.55 161.03-4.55 162.68 0 168.14 0ZM151.62-8.23L155.37-19.43 155.72-19.43 159.74-8.23ZM170.69 0L175.42 0 175.42-24.5 170.69-24.5Z" transform="translate(-2.380000114440918, 24.5)"></path></g> </g></g> </g></mask><defs v-gra="od"></defs><defs v-gra="id"><filter id="3614d4d1-2254-408c-9dbe-9d1dbd5b0ce6" filterUnits="userSpaceOnUse"><feColorMatrix type="matrix" values="0 0 0 0 0.99609375  0 0 0 0 0.99609375  0 0 0 0 0.99609375  0 0 0 1 0"></feColorMatrix></filter><linearGradient x1="0" y1="1" x2="0" y2="0" id="0SHwvTyNgpwdAdphhEEMy"><stop offset="0%" stop-color="#fdb051"></stop><stop offset="50%" stop-color="#f2203e"></stop><stop offset="100%" stop-color="#5342d6"></stop></linearGradient><filter id="42443b3f1de60f6b6fd3b6a9844b4764" filterUnits="objectBoundingBox"><feColorMatrix type="matrix" values="0 0 0 0 0.99609375  0 0 0 0 0.99609375  0 0 0 0 0.99609375  0 0 0 1 0"></feColorMatrix></filter></defs><mask v-gra="im" id="5173b9eb-000c-482e-bccd-e403c444eb3e"><g mask="url(#eb33bc26-b807-42f5-aa99-6b79c9a7d7d0)" filter="url(#3614d4d1-2254-408c-9dbe-9d1dbd5b0ce6)"><g><rect fill="#ffffff" fill-opacity="0" stroke-width="2" x="0" y="0" width="110" height="110" class="image-rect"></rect> <svg x="0" y="0" width="110" height="110" filtersec="colorsb9833698616" class="image-svg-svg primary" style="overflow: visible;"><svg xmlns="http://www.w3.org/2000/svg" xmlns:xlink="http://www.w3.org/1999/xlink" fill="#000000" version="1.1" x="0px" y="0px" viewBox="10.399999618530273 10.399999618530273 75.19999694824219 75.19999694824219" enable-background="new 0 0 96 96" xml:space="preserve"><path d="M48,85.6c20.7,0,37.6-16.9,37.6-37.6S68.7,10.4,48,10.4S10.4,27.3,10.4,48S27.3,85.6,48,85.6z M48,12.4  c19.6,0,35.6,16,35.6,35.6S67.6,83.6,48,83.6S12.4,67.6,12.4,48S28.4,12.4,48,12.4z"></path><path d="M48,75.4c15.1,0,27.4-12.3,27.4-27.4S63.1,20.6,48,20.6S20.6,32.9,20.6,48S32.9,75.4,48,75.4z M48,22.6  C62,22.6,73.4,34,73.4,48S62,73.4,48,73.4S22.6,62,22.6,48S34,22.6,48,22.6z"></path></svg></svg> </g></g></mask></g></svg>